<svg xmlns="http://www.w3.org/2000/svg" viewBox="0 0 571.94 217.32">
  <defs>
    <style>.cls-1{fill:#f7c248;}.cls-2{fill:#f38b18;}.cls-3{fill:#fff;}
    </style>
  </defs>
  <title>logo-horizontal</title>
  <g id="Camada_2" data-name="Camada 2">
  <g id="Camada_1-2" data-name="Camada 1">
    <path class="cls-1" d="M176.55,12.17H40.16c-15.44,0-28,14.06-28,31.34v81.09c0,17.28,12.56,31.34,28,31.34H93.83v32l32-32h50.7c15.44,0,28-14.06,28-31.34V43.51C204.55,26.23,192,12.17,176.55,12.17ZM67.19,34.57A31.05,31.05,0,0,1,79.29,37a46.23,46.23,0,0,0-6.84,8,21.59,21.59,0,0,0-5.26-.66c-11.21,0-20.35,8.62-21.55,20H35.78C37,47.52,50.54,34.57,67.19,34.57ZM93,135.39a4.91,4.91,0,0,1-6.6-.07c-4.76-4.42-43-40.43-49.69-62.89H47c5.68,13.94,27,37.42,42.81,52.59,2-1.83,4.7-4.43,7.83-7.52l6.9,7C98,130.93,93.26,135.15,93,135.39Zm37.26,0a4.91,4.91,0,0,1-6.6-.07c-1.7-1.58-7.7-7.24-15-14.83L97.87,108.72q-2.29-2.63-4.56-5.36c-.5-.59-1-1.2-1.48-1.78l-.53-.66c-11.61-14.28-15.91-23.1-17.48-28.5H84.29a63.69,63.69,0,0,0,6.19,11.05c.28.42.55.83.85,1.25s.79,1.12,1.2,1.68c.56.78,1.13,1.56,1.72,2.35l1,1.26q1,1.34,2.11,2.71l1.23,1.53,1.79,2.19c.83,1,1.67,2,2.58,3.06l.51.6c2.6,3,5.52,6.27,8.81,9.79.05.05.07.12.11.18,5,5.39,10.11,10.53,14.73,14.95,15.82-14.59,37.19-37.8,42.76-52.61h10.26C173.55,96.35,135,131.17,130.25,135.39Zm40.88-71.05a21.66,21.66,0,0,0-40-9.73,5.1,5.1,0,0,1-8.32,0,21.57,21.57,0,0,0-18.37-10.22,21.24,21.24,0,0,0-15.1,6.28A22.27,22.27,0,0,0,86.63,54c-.07.11-.12.23-.19.34a22.5,22.5,0,0,0-1.83,3.38c-.24.57-.38,1.19-.57,1.79a22.91,22.91,0,0,0-.73,2.32,23.82,23.82,0,0,0-.4,2.53H73.06c.08-.94.2-1.87.34-2.78.05-.32.1-.63.16-.94a32.64,32.64,0,0,1,2.79-8.38l.22-.46a32.46,32.46,0,0,1,2.12-3.56,36.83,36.83,0,0,1,7.08-7.51l.08.06A31.27,31.27,0,0,1,127,44.08a31.48,31.48,0,0,1,54,20.26Z"/><path class="cls-1" d="M292.38,17.09q3.37,1,3.37,3-6.69,14.68-22.67,45.05l-2.17.6q-3,0-8.86-13.76-9.28-17.45-15.65-31.3.42-3.37,3.37-3.37h.6q2.77,0,5.54,7.66,4,7,15,29.73h.32q18.28-37.07,19-37.07A4.88,4.88,0,0,1,292.38,17.09Z"/><path class="cls-1" d="M323.45,17.55q10.11,0,15.33,6.74V21.19q.42-3,2.72-3h1.25q2.77,0,3,3.69V61.68q0,4-4,4-3-.69-3-3v-4q-6.09,7.66-15,7.66-14.63,0-21.47-14.4a28,28,0,0,1-2.12-10.11q0-18,18.1-23.59A35.12,35.12,0,0,1,323.45,17.55ZM307.2,41.74q0,12.32,12,17.17a17.11,17.11,0,0,0,4.29.6h.92q11.72,0,14.4-13.16V39q0-11.68-11-14.4-2.63-.28-4-.28-13.34,0-16.25,14.4Z"/><path class="cls-1" d="M359.17,4.21h.65q3,.42,3,2.72V62.74q0,2.77-3.69,3-3-.69-3-3V6.93Q356.13,4.62,359.17,4.21Z"/><path class="cls-1" d="M396.1,17.09q17.13,0,23.27,18a47.81,47.81,0,0,1,.92,6.14q0,17.27-17.17,23.59a22.92,22.92,0,0,1-6.42.92h-1.25q-16.89,0-23-18.37a43,43,0,0,1-.6-6.46q0-14.49,14.4-22.07A30.48,30.48,0,0,1,396.1,17.09ZM378.93,41.6q0,12.42,12,16.85a15.66,15.66,0,0,0,5.22.92q10.53,0,15.6-10.43a18.23,18.23,0,0,0,1.52-7.34q0-13.94-13.48-17.5a21.23,21.23,0,0,0-3.65-.28h-.92q-12,0-16,13.76Q379.21,39,378.93,41.6Z"/><path class="cls-1" d="M433.22,18.29h.32q3,.42,3,3.09v4.25h.32q3.65-7.34,12.56-7.34h1.25q3,.42,3,2.77V22q0,3.37-8,3.37-8.86,3.83-8.86,15.6V62.42q0,2.63-3.69,3.37-3.37-.6-3.37-3.37V22Q430.17,18.29,433.22,18.29Z"/><path class="cls-1" d="M464.19,3.88q3.18,0,3.65,4v3.09q-.28,3.65-3,3.65h-1.25q-2.72,0-3-3.65V7.85Q461,3.88,464.19,3.88Zm0,14.4q3.37,0,3.37,2.77v42q0,2.72-3.37,2.72-3.69,0-3.69-4.89V23.18Q460.5,18.29,464.19,18.29Z"/><path class="cls-1" d="M479.89,18.89h34.3q4,.46,4,3.69,0,1.62-9.51,11.36L486,59.37h28.53q4,0,4,3.69-.37,2.72-2.77,2.72H478.32q-3-.6-3-3,0-2,11.63-14.13l20.54-23.27q-3.6.28-5.22.28H480.16q-3.37-.46-3.37-3.37Q477.3,18.89,479.89,18.89Z"/><path class="cls-1" d="M544.7,17.68h3.69q13.48,0,20.87,14.73a36.66,36.66,0,0,1,1.52,10.11q0,2.82-4,3.37H530q0,6.83,9.51,12.23a18.63,18.63,0,0,0,6.09,1.25h1.57A19.69,19.69,0,0,0,560,54.75l1.57-.28q3,.69,3,3-1.71,7.06-16.85,8.26h-1.52q-17,0-22.39-16.85A16.4,16.4,0,0,1,523,42.8V40.67q0-15.88,16.85-22.39A34.42,34.42,0,0,1,544.7,17.68Zm-15,22.39H564q0-9.83-11.36-15a18.81,18.81,0,0,0-6.14-.92q-12.19,0-16.25,12.28A17,17,0,0,0,529.7,40.07Z"/><path class="cls-2" d="M310.86,91.13l-.39-.09h-.4a8.07,8.07,0,0,0-5.24,2.13l-.5.42-.31.57c-4,7.44-11.07,21.35-21,41.4-3.34-6.58-9.38-18.36-18.25-35.57-1.57-3.9-4.18-9-8.78-9h-.75c-3.43,0-6,2.29-6.76,6.13l-.07.35v2.37l.27.64c.39.91,1.55,3.69,24.47,48C276.27,156,279,159,282.45,159h.75a7.42,7.42,0,0,0,4.88-2l.36-.36c.54-.63,1.22-1.41,20.18-39.18,8.65-16.67,8.65-17.74,8.65-18.87v-.75C317.27,96.31,316.65,92.51,310.86,91.13Z"/><path class="cls-2" d="M337.51,89.91h-.75c-1.47,0-6.33.54-7,7.44l0,.17v53.7l0,.34c.68,6.9,5.53,7.44,7,7.44h.75c1.47,0,6.33-.54,7-7.44l0-.17V97.69l0-.34C343.85,90.45,339,89.91,337.51,89.91Z"/><path class="cls-2" d="M385.3,90.66H370.09c-3.84,0-6.59,2.54-7.35,6.79l-.05.3v53.84c0,3.84,2.54,6.59,6.79,7.35l.3.05h19.65a36.55,36.55,0,0,0,16.8-4.33l.32-.19c11.25-7.44,16.95-17.19,16.95-29v-1.13c0-8.8-3.35-16.67-10-23.41C407.35,94.13,397.84,90.66,385.3,90.66Zm23.78,34.07a19.39,19.39,0,0,1-6.18,14.33c-5.16,4.23-8.43,5.12-10.27,5.12H377.49V105.46h13.64a17.35,17.35,0,0,1,8,2.51C405.82,112.39,409.08,117.88,409.08,124.73Z"/><path class="cls-2" d="M478.27,95.66c-2-5-5.52-5.8-7.48-5.8l-.32,0a8.64,8.64,0,0,0-5,2.38l-.25.22-.2.27c-.46.61-1.31,1.75-24,46.3-5.65,10.45-5.65,11.27-5.65,12.31v.75c0,3.43,2.29,6,6.13,6.76l.35.07H443a7.47,7.47,0,0,0,5.26-2.51l.41-.41.25-.52c3.35-6.85,5.28-10.54,6.39-12.53h30.92l3.58,6.45c1.56,4.16,4.15,9.52,8.78,9.52h.75c3.43,0,6-2.29,6.76-6.13l.07-.35v-2.16l-.25-.62C505.66,149,505,147.33,478.27,95.66Zm.65,32.9H462.7l8-15.82Z"/><path class="cls-2" d="M565.86,125.11c-2.59-2.73-7.31-4.81-14.81-6.56l-.35-.06c-7.66-1-13-1.7-15.77-2.19-6.49-2-8.82-4.24-8.82-5.61a4,4,0,0,1,.7-1.37c3.63-3.48,8.48-5.17,14.82-5.17,6.65,0,11.6,1.66,15.1,5.06,1.95,4.4,5,5.08,6.69,5.08h.75c3.43,0,6-2.29,6.76-6.13l.07-.35V106.7c0-1.46-.69-3.18-2.39-5.94l-.14-.23-.18-.21c-6-7-14.89-10.59-26.29-10.59h-.38a43.93,43.93,0,0,0-16.1,3.06l-.26.12c-9,4.43-13.57,10.15-13.57,17v1.5a17.89,17.89,0,0,0,1.34,5.88l.17.38c2.45,4.83,6.6,8.42,12.34,10.67l.17.06c3.25,1.08,8.74,2.11,16.8,3.15l3.9.5v0l1.82.26c6.85,2.1,9.3,4.37,9.31,5.77a4,4,0,0,1-.7,1.37c-3.63,3.48-8.48,5.17-14.82,5.17-7.34,0-12.58-2-16-6.11-2-4.1-4.74-5-6.7-5h-.75c-3.43,0-6,2.29-6.76,6.13l-.07.35v1.11c0,1.55.7,3.49,4.09,7.92l.25.29c6.19,6.44,14.8,9.7,25.59,9.7H542a43.93,43.93,0,0,0,16.1-3.06l.26-.12c9-4.43,13.57-10.15,13.57-17v-1.5C571.94,133.05,569.9,128.95,565.86,125.11Z"/><path class="cls-2" d="M81.67,217.32V168.1H40.16C18,168.1,0,148.58,0,124.6V43.51C0,19.52,18,0,40.16,0H176.55c22.15,0,40.17,19.52,40.17,43.51v81.09c0,24-18,43.51-40.17,43.51H130.89ZM176.55,12.17H40.16c-15.44,0-28,14.06-28,31.34v81.09c0,17.28,12.56,31.34,28,31.34H93.83v32l32-32h50.7c15.44,0,28-14.06,28-31.34V43.51C204.55,26.23,192,12.17,176.55,12.17Z"/><path class="cls-2" d="M85.77,40.71a36.84,36.84,0,0,0-7.08,7.51,32.45,32.45,0,0,0-2.12,3.56l-.22.46a32.64,32.64,0,0,0-2.79,8.38c-.06.31-.11.63-.16.94-.15.92-.26,1.84-.34,2.78H82.9a23.85,23.85,0,0,1,.4-2.53A22.91,22.91,0,0,1,84,59.49c.2-.59.33-1.22.57-1.79a22.49,22.49,0,0,1,1.83-3.38c.07-.11.12-.24.19-.34a22.27,22.27,0,0,1,2.72-3.31,21.24,21.24,0,0,1,15.1-6.28,21.57,21.57,0,0,1,18.37,10.22,5.1,5.1,0,0,0,8.32,0,21.66,21.66,0,0,1,40,9.73H181a31.48,31.48,0,0,0-54-20.26,31.27,31.27,0,0,0-41.14-3.32Z"/><path class="cls-2" d="M45.64,64.34c1.2-11.33,10.34-20,21.55-20a21.59,21.59,0,0,1,5.26.66,46.23,46.23,0,0,1,6.84-8,31.05,31.05,0,0,0-12.09-2.44C50.54,34.57,37,47.52,35.78,64.34Z"/><path class="cls-3" d="M97.6,117.5c-3.13,3.1-5.86,5.69-7.83,7.52C73.94,109.85,52.64,86.37,47,72.43H36.7c6.71,22.45,44.94,58.47,49.69,62.89a4.91,4.91,0,0,0,6.6.07c.27-.24,5-4.47,11.51-10.9Z"/><path class="cls-3" d="M169.82,72.43c-5.57,14.81-26.94,38-42.76,52.61-4.62-4.42-9.7-9.55-14.73-14.95,0-.06-.06-.13-.11-.18-3.29-3.52-6.2-6.78-8.81-9.79l-.51-.6c-.91-1.06-1.75-2.07-2.58-3.06l-1.79-2.19-1.23-1.53Q96.23,91.38,95.2,90l-1-1.26c-.59-.79-1.16-1.57-1.72-2.35-.41-.57-.82-1.14-1.2-1.68s-.57-.84-.85-1.25a63.69,63.69,0,0,1-6.19-11.05H73.82c1.57,5.4,5.86,14.21,17.48,28.5l.53.66c.47.58,1,1.18,1.48,1.78q2.26,2.73,4.56,5.36l10.78,11.77c7.29,7.6,13.29,13.25,15,14.83a4.91,4.91,0,0,0,6.6.07c4.75-4.23,43.3-39,49.83-63Z"/>
  </g>
  </g>
</svg>