<svg xmlns="http://www.w3.org/2000/svg" viewBox="0 0 237.37 301.81"><defs><style>.cls-1{fill:#f7c248;}.cls-2{fill:#f38b18;}.cls-3{fill:#fff;}</style></defs><title>logo-vertical</title><g id="Camada_2" data-name="Camada 2"><g id="Camada_1-2" data-name="Camada 1"><path class="cls-1" d="M180.38,10.05H67.71C55,10.05,44.59,21.67,44.59,35.94v67c0,14.27,10.37,25.89,23.12,25.89h44.34v26.45l26.45-26.45h41.88c12.75,0,23.13-11.61,23.13-25.89v-67C203.51,21.67,193.14,10.05,180.38,10.05ZM90,28.56a25.65,25.65,0,0,1,10,2,38.19,38.19,0,0,0-5.65,6.64A17.84,17.84,0,0,0,90,36.67a18.05,18.05,0,0,0-17.8,16.48H64.09C65.13,39.25,76.29,28.56,90,28.56Zm21.31,83.29a4.06,4.06,0,0,1-5.46-.06c-3.93-3.65-35.51-33.4-41-52h8.48C78,71.35,95.62,90.75,108.7,103.28c1.63-1.51,3.88-3.66,6.47-6.21l5.7,5.78C115.49,108.16,111.58,111.65,111.36,111.85Zm30.78,0a4.06,4.06,0,0,1-5.45-.06c-1.41-1.3-6.36-6-12.39-12.25l-8.91-9.72q-1.89-2.17-3.77-4.42l-1.23-1.47-.44-.55c-9.59-11.8-13.14-19.08-14.44-23.54h8.64A52.61,52.61,0,0,0,109.28,69c.23.35.46.69.7,1s.65.92,1,1.39c.46.64.93,1.29,1.42,1.94l.79,1q.85,1.11,1.74,2.23l1,1.27,1.48,1.81c.68.82,1.38,1.66,2.13,2.53l.42.49c2.15,2.49,4.56,5.18,7.27,8.09,0,0,.05.1.09.15,4.15,4.46,8.35,8.7,12.17,12.35,13.07-12,30.73-31.22,35.33-43.46h8.47C177.9,79.59,146.06,108.36,142.14,111.85Zm33.77-58.7a17.89,17.89,0,0,0-33-8,4.21,4.21,0,0,1-6.87,0,17.82,17.82,0,0,0-15.18-8.44,17.55,17.55,0,0,0-12.48,5.19,18.4,18.4,0,0,0-2.25,2.74c-.06.09-.1.19-.15.28a18.58,18.58,0,0,0-1.51,2.8c-.2.47-.31,1-.47,1.48a18.93,18.93,0,0,0-.61,1.91,19.7,19.7,0,0,0-.33,2.09H94.89c.07-.78.16-1.54.28-2.3,0-.26.09-.52.13-.78a27,27,0,0,1,2.3-6.92l.18-.38a26.8,26.8,0,0,1,1.75-2.94,30.43,30.43,0,0,1,5.84-6.2l.07,0a25.83,25.83,0,0,1,34,2.74A26,26,0,0,1,184,53.15Z"/><path class="cls-1" d="M33.52,198.34q2.46.74,2.46,2.22-4.88,10.7-16.53,32.85l-1.58.44q-2.16,0-6.46-10Q4.64,211.1,0,201q.3-2.46,2.46-2.46h.44q2,0,4,5.59,2.93,5.08,10.94,21.68h.24q13.33-27,13.87-27A3.56,3.56,0,0,1,33.52,198.34Z"/><path class="cls-1" d="M56.18,198.68q7.37,0,11.17,4.91v-2.26q.3-2.22,2-2.22h.91q2,0,2.22,2.69v29a2.56,2.56,0,0,1-2.89,2.89q-2.22-.51-2.22-2.22V228.6a13.53,13.53,0,0,1-11,5.59q-10.67,0-15.65-10.5a20.39,20.39,0,0,1-1.55-7.37q0-13.16,13.19-17.2A25.61,25.61,0,0,1,56.18,198.68ZM44.33,216.32q0,9,8.72,12.52a12.48,12.48,0,0,0,3.13.44h.67q8.55,0,10.5-9.59V214.3q0-8.52-8-10.5-1.92-.2-2.93-.2-9.73,0-11.85,10.5Z"/><path class="cls-1" d="M82.23,189h.47q2.22.3,2.22,2v40.69q0,2-2.69,2.22-2.22-.5-2.22-2.22V190.94Q80,189.25,82.23,189Z"/><path class="cls-1" d="M109.16,198.34q12.49,0,17,13.16a34.86,34.86,0,0,1,.67,4.48q0,12.59-12.52,17.2a16.71,16.71,0,0,1-4.68.67h-.91q-12.32,0-16.76-13.4a31.34,31.34,0,0,1-.44-4.71q0-10.57,10.5-16.09A22.22,22.22,0,0,1,109.16,198.34ZM96.63,216.21q0,9.06,8.72,12.29a11.41,11.41,0,0,0,3.8.67q7.67,0,11.38-7.61a13.29,13.29,0,0,0,1.11-5.35q0-10.16-9.83-12.76a15.48,15.48,0,0,0-2.66-.2h-.67q-8.72,0-11.65,10Q96.84,214.3,96.63,216.21Z"/><path class="cls-1" d="M136.22,199.22h.24q2.22.3,2.22,2.26v3.1h.24q2.66-5.35,9.16-5.35H149q2.22.3,2.22,2v.67q0,2.46-5.82,2.46-6.46,2.79-6.46,11.38v15.65q0,1.92-2.69,2.46-2.46-.44-2.46-2.46V201.91Q134,199.22,136.22,199.22Z"/><path class="cls-1" d="M158.8,188.71q2.32,0,2.66,2.89v2.26q-.2,2.66-2.22,2.66h-.91q-2,0-2.22-2.66v-2.26Q156.48,188.71,158.8,188.71Zm0,10.5q2.46,0,2.46,2v30.63q0,2-2.46,2-2.69,0-2.69-3.57v-27.5Q156.11,199.22,158.8,199.22Z"/><path class="cls-1" d="M170.25,199.65h25q2.93.34,2.93,2.69,0,1.18-6.93,8.28l-16.56,18.55h20.8q2.9,0,2.9,2.69-.27,2-2,2H169.1q-2.22-.44-2.22-2.22,0-1.48,8.48-10.3l15-17q-2.63.2-3.8.2H170.45q-2.46-.34-2.46-2.46Q168.36,199.65,170.25,199.65Z"/><path class="cls-1" d="M217.5,198.78h2.69q9.83,0,15.21,10.74a26.73,26.73,0,0,1,1.11,7.37q0,2.05-2.89,2.46H206.8q0,5,6.93,8.92a13.59,13.59,0,0,0,4.44.91h1.14a14.35,14.35,0,0,0,9.36-3.37l1.14-.2q2.22.5,2.22,2.22-1.25,5.15-12.29,6h-1.11q-12.39,0-16.32-12.29a12,12,0,0,1-.67-4.48v-1.55q0-11.58,12.29-16.32A25.1,25.1,0,0,1,217.5,198.78ZM206.56,215.1h25q0-7.17-8.28-11a13.72,13.72,0,0,0-4.48-.67q-8.89,0-11.85,9A12.41,12.41,0,0,0,206.56,215.1Z"/><path class="cls-2" d="M47,252.33l-.29-.07h-.3a5.88,5.88,0,0,0-3.82,1.56l-.36.31-.23.42c-2.92,5.43-8.07,15.57-15.32,30.19-2.43-4.8-6.84-13.38-13.31-25.93-1.14-2.84-3-6.54-6.4-6.54H6.43c-2.5,0-4.35,1.67-4.93,4.47l-.05.25v1.73l.2.47c.28.67,1.13,2.69,17.84,35,2.29,5.4,4.27,7.61,6.8,7.61h.55a5.41,5.41,0,0,0,3.56-1.43l.26-.26c.4-.46.89-1,14.71-28.57,6.31-12.15,6.31-12.93,6.31-13.76v-.55C51.68,256.11,51.22,253.34,47,252.33Z"/><path class="cls-2" d="M66.43,251.44h-.55c-1.07,0-4.62.39-5.11,5.42v39.52c.49,5,4,5.42,5.11,5.42h.55c1.07,0,4.62-.39,5.11-5.42V256.87C71.05,251.84,67.51,251.44,66.43,251.44Z"/><path class="cls-2" d="M101.28,252H90.18c-2.8,0-4.8,1.85-5.36,5l0,.22v39.25c0,2.8,1.85,4.8,5,5.36l.22,0h14.33a26.65,26.65,0,0,0,12.25-3.16l.24-.14c8.2-5.43,12.36-12.54,12.36-21.14v-.82a23.76,23.76,0,0,0-7.26-17.07C117.35,254.52,110.42,252,101.28,252Zm17.34,24.84a14.14,14.14,0,0,1-4.51,10.45c-3.76,3.09-6.15,3.74-7.49,3.74h-11V262.78h9.94a12.65,12.65,0,0,1,5.82,1.83C116.24,267.84,118.62,271.83,118.62,276.83Z"/><path class="cls-2" d="M169.06,255.64c-1.44-3.67-4-4.23-5.45-4.23h-.24a6.3,6.3,0,0,0-3.65,1.74l-.18.16-.15.19c-.33.45-1,1.27-17.47,33.76-4.12,7.62-4.12,8.22-4.12,9v.55c0,2.5,1.67,4.35,4.47,4.93l.25.05h.81a5.45,5.45,0,0,0,3.84-1.83l.3-.3.18-.38c2.45-5,3.85-7.69,4.66-9.13h22.55l2.61,4.7c1.14,3,3,6.94,6.4,6.94h.55c2.5,0,4.35-1.67,4.93-4.47l.05-.25v-1.57l-.18-.45C189,294.56,188.53,293.31,169.06,255.64Zm.47,24H157.72l5.85-11.54Z"/><path class="cls-2" d="M232.94,277.11c-1.89-2-5.33-3.51-10.8-4.78l-.26,0c-5.59-.7-9.45-1.24-11.5-1.6-4.74-1.48-6.43-3.09-6.43-4.09a2.89,2.89,0,0,1,.51-1c2.64-2.54,6.18-3.77,10.8-3.77,4.85,0,8.46,1.21,11,3.69,1.42,3.21,3.64,3.7,4.88,3.7h.55c2.5,0,4.35-1.67,4.93-4.47l.05-.25v-.81c0-1.06-.5-2.32-1.74-4.33l-.11-.17-.13-.15c-4.41-5.13-10.86-7.72-19.17-7.72h-.27a32,32,0,0,0-11.74,2.23l-.19.09c-6.57,3.23-9.9,7.4-9.9,12.39v1.1a13,13,0,0,0,1,4.28l.12.28a16.31,16.31,0,0,0,9,7.78l.12,0a73.18,73.18,0,0,0,12.25,2.3l2.84.37v0l1.32.19c5,1.53,6.78,3.19,6.78,4.21a2.9,2.9,0,0,1-.51,1c-2.64,2.54-6.18,3.77-10.8,3.77-5.35,0-9.18-1.46-11.69-4.45-1.48-3-3.46-3.63-4.88-3.63h-.55c-2.5,0-4.35,1.67-4.93,4.47l-.05.25v.81c0,1.13.51,2.54,3,5.78l.18.21c4.51,4.69,10.79,7.07,18.66,7.07h.27a32,32,0,0,0,11.74-2.23l.19-.08c6.57-3.23,9.9-7.4,9.9-12.39V286C237.37,282.9,235.88,279.91,232.94,277.11Z"/><path class="cls-2" d="M102,179.53V138.87H67.71c-18.29,0-33.18-16.12-33.18-35.94v-67C34.54,16.13,49.42,0,67.71,0H180.38c18.3,0,33.18,16.13,33.18,35.94v67c0,19.82-14.88,35.94-33.18,35.94H142.66ZM180.38,10.05H67.71C55,10.05,44.59,21.67,44.59,35.94v67c0,14.27,10.37,25.89,23.12,25.89h44.34v26.45l26.45-26.45h41.88c12.75,0,23.13-11.61,23.13-25.89v-67C203.51,21.67,193.14,10.05,180.38,10.05Z"/><path class="cls-2" d="M105.39,33.63a30.43,30.43,0,0,0-5.84,6.2,26.81,26.81,0,0,0-1.75,2.94l-.18.38a27,27,0,0,0-2.3,6.92c0,.26-.09.52-.13.78-.12.76-.22,1.52-.28,2.3H103a19.7,19.7,0,0,1,.33-2.09,18.93,18.93,0,0,1,.61-1.91c.16-.49.27-1,.47-1.48a18.58,18.58,0,0,1,1.51-2.8c.06-.09.1-.19.15-.28a18.4,18.4,0,0,1,2.25-2.74,17.55,17.55,0,0,1,12.48-5.19A17.82,17.82,0,0,1,136,45.11a4.21,4.21,0,0,0,6.87,0,17.89,17.89,0,0,1,33,8H184a26,26,0,0,0-44.6-16.73,25.83,25.83,0,0,0-34-2.74Z"/><path class="cls-2" d="M72.24,53.15A18.05,18.05,0,0,1,90,36.67a17.83,17.83,0,0,1,4.34.54A38.19,38.19,0,0,1,100,30.57a25.65,25.65,0,0,0-10-2c-13.76,0-24.92,10.7-26,24.59Z"/><path class="cls-3" d="M115.17,97.06c-2.58,2.56-4.84,4.7-6.47,6.21C95.62,90.75,78,71.35,73.33,59.83H64.85c5.54,18.55,37.12,48.3,41,52a4.06,4.06,0,0,0,5.46.06c.22-.2,4.13-3.69,9.51-9Z"/><path class="cls-3" d="M174.82,59.83c-4.6,12.23-22.25,31.41-35.33,43.46-3.81-3.65-8-7.89-12.17-12.35,0,0-.05-.1-.09-.15-2.72-2.91-5.12-5.6-7.27-8.09l-.42-.49c-.75-.87-1.45-1.71-2.13-2.53l-1.48-1.81-1-1.27q-.89-1.13-1.74-2.24l-.79-1c-.49-.65-1-1.3-1.42-1.94-.34-.47-.68-.94-1-1.39s-.47-.69-.7-1a52.61,52.61,0,0,1-5.12-9.13H95.52c1.29,4.46,4.84,11.74,14.44,23.54l.44.55,1.23,1.47q1.87,2.25,3.77,4.42l8.91,9.72c6,6.28,11,10.95,12.39,12.25a4.06,4.06,0,0,0,5.45.06c3.93-3.49,35.77-32.25,41.16-52Z"/></g></g></svg>